<svg width="2306" height="198" viewBox="0 0 2306 186" fill="none" xmlns="http://www.w3.org/2000/svg">
<mask id="path-1-outside-1_1004_18264" maskUnits="userSpaceOnUse" x="0.160156" y="-5.94751" width="2306" height="198" fill="black">
<rect fill="white" x="0.160156" y="-5.94751" width="2306" height="198"/>
<path d="M3.16016 182.424H102.811V144.111H44.0425V107.33H95.1455V69.0165H44.0425V41.9418H100.256V3.6284H3.16016V182.424ZM202.522 186L286.842 3.6284H244.171L203.033 98.3901L159.34 3.6284H115.647L202.522 186ZM304.837 182.424H404.488V144.111H345.72V107.33H396.823V69.0165H345.72V41.9418H401.933V3.6284H304.837V182.424ZM583.409 186V3.6284H544.059V97.6238L430.1 0.0524902V182.424H469.449V88.4286L583.409 186ZM644.662 182.424H685.545V41.9418H726.427V3.6284H603.78V41.9418H644.662V182.424ZM800.924 186C830.308 186 859.948 163.012 859.948 129.296C859.948 60.3322 781.76 83.3202 781.76 53.1803C781.76 45.5177 786.87 39.643 796.324 39.643C805.779 39.643 811.4 44.2406 814.211 53.1803H857.648C850.749 16.9104 827.242 0.0524902 796.324 0.0524902C767.451 0.0524902 739.345 20.7417 739.345 54.202C739.345 122.655 817.532 99.1564 817.532 130.318C817.532 138.747 811.655 146.41 800.924 146.41C790.192 146.41 782.527 140.79 779.716 130.318H736.278C742.666 166.077 766.685 186 800.924 186ZM957.099 182.424H996.449V102.477L1047.55 157.393L1099.68 100.689V182.424H1140.56V0.0524902L1049.08 100.433L957.099 0.0524902V182.424ZM1158.42 182.424H1201.09L1210.29 161.224H1276.21L1285.92 182.424H1329.61L1242.74 0.0524902L1158.42 182.424ZM1225.87 125.465L1242.23 87.6624L1259.6 125.465H1225.87ZM1347.61 182.424H1410.46C1462.08 182.424 1503.47 149.219 1503.47 93.0262C1503.47 36.8333 1462.08 3.6284 1410.46 3.6284H1347.61V182.424ZM1388.49 144.111V41.9418H1410.46C1441.13 41.9418 1461.06 61.3539 1461.06 93.0262C1461.06 124.699 1441.13 144.111 1410.46 144.111H1388.49ZM1526.52 182.424H1626.17V144.111H1567.4V107.33H1618.5V69.0165H1567.4V41.9418H1623.61V3.6284H1526.52V182.424ZM1728.39 182.424H1828.04V144.111H1769.27V107.33H1820.37V69.0165H1769.27V41.9418H1825.48V3.6284H1728.39V182.424ZM1840.87 182.424H1883.54L1892.74 161.224H1958.66L1968.37 182.424H2012.07L1925.19 0.0524902L1840.87 182.424ZM1908.33 125.465L1924.68 87.6624L1942.06 125.465H1908.33ZM2081.99 186C2111.38 186 2141.02 163.012 2141.02 129.296C2141.02 60.3322 2062.83 83.3202 2062.83 53.1803C2062.83 45.5177 2067.94 39.643 2077.39 39.643C2086.85 39.643 2092.47 44.2406 2095.28 53.1803H2138.72C2131.82 16.9104 2108.31 0.0524902 2077.39 0.0524902C2048.52 0.0524902 2020.41 20.7417 2020.41 54.202C2020.41 122.655 2098.6 99.1564 2098.6 130.318C2098.6 138.747 2092.72 146.41 2081.99 146.41C2071.26 146.41 2063.59 140.79 2060.78 130.318H2017.35C2023.73 166.077 2047.75 186 2081.99 186ZM2202.31 182.424H2243.19V118.568L2301.7 3.6284H2258.52L2223.77 72.0816L2189.53 3.6284H2143.8L2202.31 118.568V182.424Z"/>
</mask>
<path d="M3.16016 182.424H102.811V144.111H44.0425V107.33H95.1455V69.0165H44.0425V41.9418H100.256V3.6284H3.16016V182.424ZM202.522 186L286.842 3.6284H244.171L203.033 98.3901L159.34 3.6284H115.647L202.522 186ZM304.837 182.424H404.488V144.111H345.72V107.33H396.823V69.0165H345.72V41.9418H401.933V3.6284H304.837V182.424ZM583.409 186V3.6284H544.059V97.6238L430.1 0.0524902V182.424H469.449V88.4286L583.409 186ZM644.662 182.424H685.545V41.9418H726.427V3.6284H603.78V41.9418H644.662V182.424ZM800.924 186C830.308 186 859.948 163.012 859.948 129.296C859.948 60.3322 781.76 83.3202 781.76 53.1803C781.76 45.5177 786.87 39.643 796.324 39.643C805.779 39.643 811.4 44.2406 814.211 53.1803H857.648C850.749 16.9104 827.242 0.0524902 796.324 0.0524902C767.451 0.0524902 739.345 20.7417 739.345 54.202C739.345 122.655 817.532 99.1564 817.532 130.318C817.532 138.747 811.655 146.41 800.924 146.41C790.192 146.41 782.527 140.79 779.716 130.318H736.278C742.666 166.077 766.685 186 800.924 186ZM957.099 182.424H996.449V102.477L1047.55 157.393L1099.68 100.689V182.424H1140.56V0.0524902L1049.08 100.433L957.099 0.0524902V182.424ZM1158.42 182.424H1201.09L1210.29 161.224H1276.21L1285.92 182.424H1329.61L1242.74 0.0524902L1158.42 182.424ZM1225.87 125.465L1242.23 87.6624L1259.6 125.465H1225.87ZM1347.61 182.424H1410.46C1462.08 182.424 1503.47 149.219 1503.47 93.0262C1503.47 36.8333 1462.08 3.6284 1410.46 3.6284H1347.61V182.424ZM1388.49 144.111V41.9418H1410.46C1441.13 41.9418 1461.06 61.3539 1461.06 93.0262C1461.06 124.699 1441.13 144.111 1410.46 144.111H1388.49ZM1526.52 182.424H1626.17V144.111H1567.4V107.33H1618.5V69.0165H1567.4V41.9418H1623.61V3.6284H1526.52V182.424ZM1728.39 182.424H1828.04V144.111H1769.27V107.33H1820.37V69.0165H1769.27V41.9418H1825.48V3.6284H1728.39V182.424ZM1840.87 182.424H1883.54L1892.74 161.224H1958.66L1968.37 182.424H2012.07L1925.19 0.0524902L1840.87 182.424ZM1908.33 125.465L1924.68 87.6624L1942.06 125.465H1908.33ZM2081.99 186C2111.38 186 2141.02 163.012 2141.02 129.296C2141.02 60.3322 2062.83 83.3202 2062.83 53.1803C2062.83 45.5177 2067.94 39.643 2077.39 39.643C2086.85 39.643 2092.47 44.2406 2095.28 53.1803H2138.72C2131.82 16.9104 2108.31 0.0524902 2077.39 0.0524902C2048.52 0.0524902 2020.41 20.7417 2020.41 54.202C2020.41 122.655 2098.6 99.1564 2098.6 130.318C2098.6 138.747 2092.72 146.41 2081.99 146.41C2071.26 146.41 2063.59 140.79 2060.78 130.318H2017.35C2023.73 166.077 2047.75 186 2081.99 186ZM2202.31 182.424H2243.19V118.568L2301.7 3.6284H2258.52L2223.77 72.0816L2189.53 3.6284H2143.8L2202.31 118.568V182.424Z" stroke="#9099FF" stroke-width="4.53741" mask="url(#path-1-outside-1_1004_18264)"/>
</svg>

