<svg width="1280" height="164" viewBox="0 0 1280 164" fill="none" xmlns="http://www.w3.org/2000/svg">
<mask id="path-1-outside-1_643_2453" maskUnits="userSpaceOnUse" x="-232" y="0" width="1904" height="164" fill="black">
<rect fill="white" x="-232" width="1904" height="164"/>
<path d="M-230 156.058H-147.714V124.533H-196.242V94.2692H-154.044V62.7445H-196.242V40.467H-149.824V8.94231H-230V156.058ZM-65.3792 159L4.24712 8.94231H-30.988L-64.9572 86.9135L-101.036 8.94231H-137.115L-65.3792 159ZM19.107 156.058H101.393V124.533H52.8652V94.2692H95.063V62.7445H52.8652V40.467H99.2828V8.94231H19.107V156.058ZM249.134 159V8.94231H216.642V86.283L122.541 6V156.058H155.033V78.717L249.134 159ZM299.714 156.058H333.472V40.467H367.23V8.94231H265.956V40.467H299.714V156.058ZM428.745 159C453.009 159 477.484 140.085 477.484 112.343C477.484 55.5989 412.921 74.5137 412.921 49.7143C412.921 43.4093 417.141 38.5756 424.947 38.5756C432.754 38.5756 437.396 42.3585 439.717 49.7143H475.585C469.888 19.8709 450.477 6 424.947 6C401.106 6 377.897 23.0234 377.897 50.5549C377.897 106.879 442.46 87.544 442.46 113.184C442.46 120.12 437.607 126.424 428.745 126.424C419.884 126.424 413.554 121.801 411.233 113.184H375.365C380.64 142.607 400.473 159 428.745 159ZM557.706 156.058H590.198V90.2761L632.396 135.462L675.437 88.8049V156.058H709.196V6L633.662 88.5948L557.706 6V156.058ZM723.942 156.058H759.177L766.773 138.614H821.208L829.225 156.058H865.304L793.568 6L723.942 156.058ZM779.643 109.191L793.146 78.0865L807.493 109.191H779.643ZM880.164 156.058H932.068C974.687 156.058 1008.87 128.736 1008.87 82.5C1008.87 36.2637 974.687 8.94231 932.068 8.94231H880.164V156.058ZM913.922 124.533V40.467H932.068C957.386 40.467 973.843 56.4396 973.843 82.5C973.843 108.56 957.386 124.533 932.068 124.533H913.922ZM1027.9 156.058H1110.18V124.533H1061.66V94.2692H1103.85V62.7445H1061.66V40.467H1108.07V8.94231H1027.9V156.058ZM1194.59 156.058H1276.87V124.533H1228.35V94.2692H1270.54V62.7445H1228.35V40.467H1274.76V8.94231H1194.59V156.058ZM1287.47 156.058H1322.71L1330.3 138.614H1384.74L1392.76 156.058H1428.83L1357.1 6L1287.47 156.058ZM1343.17 109.191L1356.68 78.0865L1371.02 109.191H1343.17ZM1486.57 159C1510.84 159 1535.31 140.085 1535.31 112.343C1535.31 55.5989 1470.75 74.5137 1470.75 49.7143C1470.75 43.4093 1474.97 38.5756 1482.78 38.5756C1490.58 38.5756 1495.22 42.3585 1497.55 49.7143H1533.41C1527.72 19.8709 1508.31 6 1482.78 6C1458.93 6 1435.73 23.0234 1435.73 50.5549C1435.73 106.879 1500.29 87.544 1500.29 113.184C1500.29 120.12 1495.44 126.424 1486.57 126.424C1477.71 126.424 1471.38 121.801 1469.06 113.184H1433.19C1438.47 142.607 1458.3 159 1486.57 159ZM1585.93 156.058H1619.68V103.516L1668 8.94231H1632.34L1603.65 65.2665L1575.38 8.94231H1537.61L1585.93 103.516V156.058Z"/>
</mask>
<path d="M-230 156.058H-147.714V124.533H-196.242V94.2692H-154.044V62.7445H-196.242V40.467H-149.824V8.94231H-230V156.058ZM-65.3792 159L4.24712 8.94231H-30.988L-64.9572 86.9135L-101.036 8.94231H-137.115L-65.3792 159ZM19.107 156.058H101.393V124.533H52.8652V94.2692H95.063V62.7445H52.8652V40.467H99.2828V8.94231H19.107V156.058ZM249.134 159V8.94231H216.642V86.283L122.541 6V156.058H155.033V78.717L249.134 159ZM299.714 156.058H333.472V40.467H367.23V8.94231H265.956V40.467H299.714V156.058ZM428.745 159C453.009 159 477.484 140.085 477.484 112.343C477.484 55.5989 412.921 74.5137 412.921 49.7143C412.921 43.4093 417.141 38.5756 424.947 38.5756C432.754 38.5756 437.396 42.3585 439.717 49.7143H475.585C469.888 19.8709 450.477 6 424.947 6C401.106 6 377.897 23.0234 377.897 50.5549C377.897 106.879 442.46 87.544 442.46 113.184C442.46 120.12 437.607 126.424 428.745 126.424C419.884 126.424 413.554 121.801 411.233 113.184H375.365C380.64 142.607 400.473 159 428.745 159ZM557.706 156.058H590.198V90.2761L632.396 135.462L675.437 88.8049V156.058H709.196V6L633.662 88.5948L557.706 6V156.058ZM723.942 156.058H759.177L766.773 138.614H821.208L829.225 156.058H865.304L793.568 6L723.942 156.058ZM779.643 109.191L793.146 78.0865L807.493 109.191H779.643ZM880.164 156.058H932.068C974.687 156.058 1008.87 128.736 1008.87 82.5C1008.87 36.2637 974.687 8.94231 932.068 8.94231H880.164V156.058ZM913.922 124.533V40.467H932.068C957.386 40.467 973.843 56.4396 973.843 82.5C973.843 108.56 957.386 124.533 932.068 124.533H913.922ZM1027.9 156.058H1110.18V124.533H1061.66V94.2692H1103.85V62.7445H1061.66V40.467H1108.07V8.94231H1027.9V156.058ZM1194.59 156.058H1276.87V124.533H1228.35V94.2692H1270.54V62.7445H1228.35V40.467H1274.76V8.94231H1194.59V156.058ZM1287.47 156.058H1322.71L1330.3 138.614H1384.74L1392.76 156.058H1428.83L1357.1 6L1287.47 156.058ZM1343.17 109.191L1356.68 78.0865L1371.02 109.191H1343.17ZM1486.57 159C1510.84 159 1535.31 140.085 1535.31 112.343C1535.31 55.5989 1470.75 74.5137 1470.75 49.7143C1470.75 43.4093 1474.97 38.5756 1482.78 38.5756C1490.58 38.5756 1495.22 42.3585 1497.55 49.7143H1533.41C1527.72 19.8709 1508.31 6 1482.78 6C1458.93 6 1435.73 23.0234 1435.73 50.5549C1435.73 106.879 1500.29 87.544 1500.29 113.184C1500.29 120.12 1495.44 126.424 1486.57 126.424C1477.71 126.424 1471.38 121.801 1469.06 113.184H1433.19C1438.47 142.607 1458.3 159 1486.57 159ZM1585.93 156.058H1619.68V103.516L1668 8.94231H1632.34L1603.65 65.2665L1575.38 8.94231H1537.61L1585.93 103.516V156.058Z" stroke="#1C0544" stroke-width="4" mask="url(#path-1-outside-1_643_2453)"/>
</svg>
