<svg width="235" height="239" viewBox="0 0 235 239" fill="none" xmlns="http://www.w3.org/2000/svg">
<g clip-path="url(#clip0_671_6265)">
<path d="M175 45.0351C174.365 43.1741 173.219 41.8987 171.167 41.7671C170.624 41.733 170.068 41.9282 169.516 41.96C169.256 41.9736 168.902 41.935 168.738 41.7693C164.517 37.5118 160.316 33.2361 156.073 28.9219C157.825 25.6107 157.614 22.4879 154.806 19.8032C153.148 18.2191 150.071 17.0821 146.425 19.1881C146.254 19.0338 146.066 18.8727 145.893 18.6979C141.896 14.6515 137.909 10.6005 133.901 6.56536C133.524 6.18636 133.403 5.88906 133.58 5.33077C134.165 3.50158 133.374 1.54076 131.75 0.569428C130.167 -0.379209 128.117 -0.129567 126.789 1.17311C125.468 2.46897 125.17 4.53873 126.067 6.17501C126.968 7.8181 128.839 8.68731 130.633 8.16079C131.322 7.95881 131.689 8.14718 132.14 8.61242C134.179 10.7117 136.253 12.7792 138.315 14.858C138.507 15.0509 138.689 15.2551 138.969 15.5502C124.896 10.0671 111.796 11.6399 99.3326 20.4114C98.7382 19.7623 98.099 19.0225 97.4172 18.3303C96.5919 17.4928 95.9325 17.4928 95.1071 18.3212C93.2591 20.1754 91.4177 22.034 89.5876 23.9086C88.8049 24.7097 88.8183 25.3747 89.6123 26.1849C91.4446 28.0549 93.286 29.9159 95.1363 31.7678C95.9168 32.5508 96.5986 32.5462 97.3903 31.7587C99.2451 29.9114 101.093 28.0572 102.932 26.1962C103.735 25.3838 103.715 24.6825 102.896 23.8542C102.423 23.3753 101.941 22.9101 101.456 22.4312C113.278 13.1809 131.252 12.466 144.135 21.7118C142.811 24.9072 143.132 27.8484 145.752 30.2745C147.802 32.174 150.291 32.4282 153.521 31.2277C161.866 42.5546 162.893 61.0507 152.805 74.5109C152.303 73.9458 151.845 73.3739 151.327 72.861C150.623 72.162 149.885 72.1598 149.188 72.861C147.284 74.7787 145.391 76.7078 143.513 78.6527C142.903 79.2836 142.856 80.0257 143.439 80.6203C145.545 82.765 147.685 84.8756 149.811 86.9998H150.65C150.894 86.8137 151.164 86.6526 151.379 86.437C153.245 84.5624 155.109 82.6855 156.957 80.7928C157.728 80.003 157.713 79.3245 156.91 78.5211C156.217 77.8289 155.483 77.1798 154.833 76.5716C163.488 63.9715 165.058 50.711 159.736 36.5473C162.059 38.819 164.302 41.1475 166.585 43.4374C167.022 43.8754 167.11 44.2294 166.939 44.8286C166.332 46.9641 167.5 49.1224 169.575 49.8395C171.602 50.5408 173.791 49.5627 174.668 47.5633C174.767 47.3386 174.886 47.1253 174.996 46.9051C174.996 46.2833 174.996 45.6592 174.996 45.0374L175 45.0351ZM150.305 29.285C147.95 29.3077 146.081 27.4422 146.077 25.0615C146.07 22.6899 147.945 20.77 150.264 20.7722C152.529 20.7722 154.429 22.6718 154.478 24.9798C154.528 27.3128 152.637 29.2646 150.305 29.2873V29.285ZM150.206 75.8181C151.466 77.0936 152.776 78.4189 154.01 79.6649C152.776 80.9199 151.484 82.2339 150.251 83.4889C148.995 82.2248 147.694 80.9154 146.429 79.6422C147.689 78.3645 148.986 77.0527 150.206 75.8159V75.8181ZM99.9359 24.914C98.7136 26.1599 97.415 27.483 96.1657 28.7562C94.9995 27.567 93.7121 26.2575 92.4808 25.0025C93.7144 23.7543 95.004 22.4471 96.2487 21.1875C97.4778 22.4312 98.7562 23.7225 99.9359 24.9163V24.914ZM128.229 4.20965C128.211 3.41307 128.857 2.74131 129.642 2.73677C130.4 2.72996 131.026 3.33364 131.061 4.10753C131.1 4.92 130.496 5.59176 129.702 5.61899C128.913 5.64623 128.247 5.0085 128.229 4.20965ZM169.46 45.8703C169.467 45.0918 170.075 44.4836 170.853 44.47C171.643 44.4586 172.185 44.9852 172.192 45.7772C172.199 46.5965 171.564 47.2455 170.766 47.2342C170.01 47.2229 169.451 46.6396 169.458 45.868L169.46 45.8703Z" fill="#9099FF"/>
<path d="M111.693 87C112.02 86.5915 112.433 86.2261 112.664 85.77C113.954 83.2304 115.212 80.675 116.45 78.1083C116.712 77.5636 117.051 77.2254 117.618 77.0076C122.059 75.3077 126.486 73.5693 130.927 71.8672C131.66 71.5858 132.116 71.1546 132.412 70.4011C136.904 58.9789 141.417 47.5635 145.945 36.1549C146.306 35.2471 146.209 34.5663 145.492 33.8764C144.092 32.5328 142.74 31.1348 141.39 29.7369C140.829 29.1536 140.237 29.031 139.495 29.3306C128.083 33.9513 116.67 38.5673 105.249 43.1676C104.55 43.449 104.22 43.9596 103.971 44.6246C102.291 49.0886 100.587 53.5413 98.9156 58.0099C98.6913 58.609 98.3549 58.9812 97.7875 59.2603C95.224 60.5222 92.6807 61.8226 90.1328 63.1162C88.7804 63.8038 88.6347 64.6821 89.7067 65.7669C96.471 72.6161 103.24 79.4631 110.011 86.3056C110.264 86.562 110.569 86.7685 110.85 86.9978H111.688L111.693 87ZM123.257 50.2551C118.695 47.4387 114.339 49.4812 112.428 52.1319C110.154 55.2842 110.396 59.5735 113.059 62.4194C115.665 65.2063 119.922 65.7011 123.111 63.5746C124.712 62.5079 125.8 61.0396 126.338 59.1718C127.045 56.714 126.619 54.4241 125.363 52.4519C131.178 46.5695 136.924 40.7551 142.688 34.9249C143.099 35.1768 143.327 35.5058 143.063 36.1685C138.754 46.9939 134.48 57.8328 130.169 68.6559C130.025 69.0168 129.655 69.398 129.301 69.5388C125.17 71.1864 121.018 72.7796 116.883 74.4181C116.349 74.6292 116.044 74.5202 115.658 74.1253C111.042 69.4275 106.418 64.7388 101.768 60.0751C101.309 59.6144 101.282 59.2535 101.504 58.6816C103.063 54.6556 104.603 50.625 106.106 46.5763C106.364 45.8818 106.73 45.4824 107.414 45.2055C118.002 40.9457 128.583 36.6655 139.156 32.3626C139.847 32.0812 140.253 32.1856 140.531 32.7757C134.778 38.5946 129.048 44.3953 123.257 50.2528V50.2551ZM114.187 76.6399C113.108 78.8163 112.005 81.0449 110.975 83.1238C104.913 76.9917 98.8954 70.905 92.8623 64.8024C94.9616 63.7403 97.1483 62.6328 99.2677 61.5616C104.26 66.6089 109.201 71.6017 114.187 76.6399ZM118.807 51.6327C121.723 51.6485 124.006 53.9861 123.988 56.9387C123.97 59.8254 121.653 62.1721 118.807 62.1834C115.943 62.1948 113.561 59.7937 113.561 56.8956C113.561 53.9816 115.918 51.619 118.809 51.6349L118.807 51.6327Z" fill="#9099FF"/>
</g>
<g clip-path="url(#clip1_671_6265)">
<path d="M5.31709 177.873V176.81C5.31709 168.552 5.31709 160.277 5.31709 152.02C5.31709 150.354 5.65385 150 7.28447 150C25.434 150 43.6012 150 61.7684 150C63.3459 150 63.7003 150.372 63.7003 151.967C63.7003 157.159 63.7003 162.368 63.7003 167.56C63.7003 167.861 63.7003 168.163 63.7003 168.588C64.9056 168.588 66.0931 168.588 67.2629 168.588C68.5568 168.588 68.9999 169.031 68.9999 170.324C68.9999 184.252 68.9999 198.18 68.9999 212.125C68.9999 216.165 66.1463 219 62.1052 219.018C43.6898 219.018 25.2922 219.018 6.87681 219.018C2.88889 219.018 0.0175781 216.165 0.0175781 212.178C0.0175781 201.316 0.0175781 190.454 0.0175781 179.592C0.0175781 178.334 0.460681 177.891 1.70137 177.891C2.85344 177.891 4.02323 177.891 5.31709 177.891V177.873ZM56.7525 216.36C56.4689 215.385 56.079 214.482 55.9372 213.525C55.7599 212.32 55.7422 211.097 55.7422 209.892C55.7422 198.676 55.7422 187.459 55.7422 176.225C55.7422 175.906 55.7422 175.587 55.7422 175.233C51.0985 175.233 46.5611 175.233 42.0415 175.25C41.7933 175.25 41.492 175.463 41.2971 175.658C39.9323 176.987 38.5853 178.334 37.256 179.698C36.6888 180.283 36.0684 180.549 35.2177 180.549C24.7073 180.513 14.2146 180.531 3.7042 180.531C3.38516 180.531 3.06613 180.531 2.6762 180.531C2.6762 180.903 2.6762 181.169 2.6762 181.435C2.6762 191.606 2.6762 201.777 2.6762 211.948C2.6762 214.747 4.28909 216.36 7.10723 216.36C23.4489 216.36 39.7728 216.36 56.1144 216.36C56.3803 216.36 56.6461 216.36 56.7702 216.36H56.7525ZM60.9886 208.351V152.729H8.01116V177.82C8.13523 177.837 8.20612 177.873 8.29474 177.873C17.1391 177.873 25.9834 177.873 34.8278 177.873C35.1113 177.873 35.4658 177.696 35.6785 177.483C37.0255 176.172 38.3726 174.861 39.6487 173.496C40.2691 172.823 40.9426 172.575 41.8288 172.575C46.6852 172.592 51.5593 172.575 56.4157 172.575C58.0109 172.575 58.3831 172.947 58.3831 174.506C58.3831 185.457 58.3831 196.39 58.3831 207.341C58.3831 207.659 58.3831 207.996 58.3831 208.351H60.9708H60.9886ZM58.4363 211.044C58.3122 212.426 58.3654 213.666 59.1807 214.747C60.2264 216.112 61.9988 216.679 63.6295 216.147C65.2955 215.598 66.3412 214.092 66.3412 212.196C66.3412 198.764 66.3412 185.333 66.3412 171.901C66.3412 171.689 66.3058 171.476 66.2881 171.263H63.7003C63.7003 171.618 63.7003 171.955 63.7003 172.273C63.7003 184.606 63.7003 196.921 63.7003 209.254C63.7003 210.601 63.275 211.026 61.9102 211.026C60.7759 211.026 59.6415 211.026 58.4363 211.026V211.044Z" fill="#9099FF"/>
<path d="M21.1628 193.75C21.2337 192.368 21.1982 191.039 21.3932 189.727C22.0135 185.723 25.7002 182.905 29.7944 183.189C33.7824 183.455 37.0259 186.821 37.1499 190.826C37.1854 191.783 37.1499 192.757 37.1499 193.732C39.1882 193.98 40.553 194.955 41.0315 196.957C41.1201 197.329 41.1201 197.719 41.1201 198.109C41.1201 201.422 41.1201 204.736 41.1201 208.067C41.1201 210.725 39.4718 212.373 36.8309 212.373C31.7086 212.373 26.6041 212.373 21.4818 212.373C18.8941 212.373 17.228 210.707 17.228 208.12C17.228 204.824 17.228 201.546 17.228 198.25C17.228 195.61 18.5042 194.14 21.1273 193.767L21.1628 193.75ZM29.1918 196.443C26.6573 196.443 24.105 196.443 21.5704 196.443C20.3829 196.443 19.9221 196.904 19.9221 198.109C19.9221 201.422 19.9221 204.736 19.9221 208.067C19.9221 209.254 20.3829 209.715 21.5882 209.733C26.675 209.733 31.7618 209.733 36.8486 209.733C38.0361 209.733 38.497 209.272 38.497 208.067C38.497 204.754 38.497 201.44 38.497 198.109C38.497 196.921 38.0361 196.461 36.8309 196.461C34.2964 196.461 31.7441 196.461 29.2095 196.461L29.1918 196.443ZM23.8214 193.732H34.4913C34.4913 192.793 34.4913 191.907 34.4913 191.039C34.4204 188.31 32.329 186.077 29.6526 185.847C26.9763 185.616 24.5304 187.406 24.0341 190.064C23.8214 191.234 23.8923 192.474 23.8214 193.75V193.732Z" fill="#9099FF"/>
<path d="M27.8446 203.868C29.1916 202.521 30.4678 201.263 31.7262 200.005C31.9212 199.81 32.0984 199.597 32.3288 199.438C32.9137 198.977 33.6581 198.995 34.1189 199.509C34.6152 200.04 34.7216 200.714 34.2253 201.227C32.4352 203.07 30.6273 204.895 28.7663 206.65C28.0573 207.305 27.5256 207.234 26.7989 206.543C25.9304 205.728 25.0974 204.878 24.2998 204.009C23.7503 203.425 23.7858 202.663 24.2998 202.149C24.8315 201.617 25.6114 201.6 26.2317 202.184C26.7812 202.698 27.2774 203.247 27.8801 203.868H27.8446Z" fill="#9099FF"/>
</g>
<g clip-path="url(#clip2_671_6265)">
<path d="M221.405 195.303C221.108 195.303 220.858 195.303 220.607 195.303C214.172 195.303 207.738 195.314 201.301 195.288C200.634 195.285 200.363 195.463 200.28 196.145C200.058 197.953 199.223 199.514 198.133 200.921C203.093 205.865 208.02 210.778 213.006 215.747C214.78 214.518 216.794 214.02 219.009 214.643C220.624 215.097 221.903 216.032 222.822 217.425C224.683 220.246 224.207 223.918 221.71 226.207C219.308 228.408 215.59 228.539 212.989 226.532C210.735 224.793 209.082 220.986 211.709 217.021C206.784 212.089 201.867 207.167 196.89 202.182C196.589 202.387 196.23 202.714 195.808 202.904C194.76 203.376 193.71 203.87 192.612 204.197C191.317 204.583 191.295 204.51 191.295 205.833C191.295 212.014 191.295 218.194 191.295 224.375V225.42C192.811 225.733 194.15 226.273 195.229 227.345C197.486 229.587 197.94 232.893 196.35 235.665C194.87 238.243 191.669 239.557 188.765 238.778C185.736 237.964 183.692 235.241 183.722 232.062C183.753 229.033 185.878 226.358 188.896 225.638C189.527 225.488 189.751 225.268 189.747 224.592C189.719 218.241 189.719 211.892 189.744 205.542C189.747 204.737 189.529 204.471 188.692 204.236C187.28 203.838 185.942 203.142 184.616 202.482C184.176 202.262 183.948 202.147 183.553 202.545C178.959 207.169 174.353 211.779 169.73 216.374C169.31 216.79 169.269 217.065 169.586 217.579C171.533 220.757 170.687 224.719 167.661 226.783C164.68 228.815 160.67 228.159 158.42 225.273C156.523 222.841 156.649 219.101 158.704 216.738C160.836 214.286 164.399 213.626 167.154 215.278C167.916 215.736 168.301 215.656 168.902 215.048C173.362 210.531 177.865 206.055 182.352 201.564C182.53 201.387 182.696 201.197 182.637 201.072C182.009 199.523 181.213 198.014 180.815 196.407C180.566 195.405 180.202 195.28 179.326 195.285C173.032 195.319 166.738 195.314 160.444 195.288C159.793 195.285 159.549 195.449 159.384 196.114C158.528 199.563 155.392 201.666 151.86 201.239C148.587 200.843 146.048 197.923 145.999 194.496C145.952 191.183 148.62 188.176 151.975 187.763C155.369 187.344 158.613 189.572 159.389 192.943C159.549 193.644 159.841 193.753 160.461 193.751C166.868 193.732 173.274 193.727 179.682 193.754C180.39 193.758 180.627 193.585 180.723 192.847C180.957 191.079 181.761 189.525 182.821 188.186C177.873 183.244 172.952 178.329 168.037 173.419C167.144 173.754 166.157 174.272 165.107 174.494C161.964 175.161 158.848 173.456 157.597 170.503C156.339 167.534 157.351 164.071 160.01 162.253C162.643 160.451 166.167 160.733 168.509 162.932C170.844 165.123 171.332 168.621 169.635 171.365C169.295 171.915 169.285 172.222 169.772 172.706C174.361 177.252 178.92 181.832 183.487 186.4C183.646 186.559 183.815 186.706 183.871 186.759C185.289 186.117 186.626 185.485 187.988 184.908C188.531 184.678 189.343 184.732 189.637 184.351C189.928 183.977 189.729 183.215 189.729 182.622C189.73 176.78 189.729 170.938 189.729 165.096C189.729 164.618 189.729 164.142 189.729 163.624C189.5 163.563 189.319 163.507 189.134 163.469C185.753 162.757 183.477 159.696 183.731 156.202C183.973 152.892 186.803 150.213 190.272 150.01C193.522 149.821 196.621 152.343 197.205 155.655C197.821 159.155 195.595 162.561 192.071 163.401C191.431 163.553 191.281 163.8 191.283 164.407C191.302 170.813 191.302 177.22 191.283 183.626C191.281 184.31 191.373 184.647 192.198 184.745C193.967 184.954 195.513 185.788 197.058 187.014C198.285 185.738 199.474 184.464 200.702 183.23C204.202 179.707 207.712 176.194 211.236 172.696C211.659 172.276 211.763 171.991 211.417 171.428C209.865 168.886 210.046 165.979 211.825 163.668C213.456 161.55 216.303 160.589 218.865 161.29C221.677 162.06 223.637 164.286 223.901 167.214C224.148 169.951 223.064 172.149 220.733 173.605C218.43 175.042 216.017 175.032 213.681 173.657C213.07 173.297 212.767 173.329 212.278 173.823C207.727 178.412 203.147 182.968 198.592 187.549C198.409 187.732 198.241 188.215 198.345 188.352C199.515 189.93 200.206 191.69 200.427 193.678H221.354C223.112 188.982 225.799 187.09 229.589 187.871C232.869 188.546 235.153 191.514 234.991 194.887C234.837 198.087 232.219 200.889 229.099 201.244C225.599 201.644 222.214 199.538 221.405 195.3V195.303ZM190.459 202.873C195.078 202.905 198.827 199.214 198.859 194.603C198.893 189.921 195.208 186.176 190.547 186.151C185.925 186.125 182.168 189.823 182.137 194.425C182.107 199.099 185.792 202.841 190.459 202.873ZM233.418 194.641C233.489 191.729 231.182 189.325 228.268 189.271C225.462 189.219 223.049 191.535 222.983 194.342C222.914 197.281 225.188 199.683 228.094 199.744C230.967 199.804 233.348 197.523 233.418 194.641ZM190.472 162.029C193.337 162.067 195.718 159.735 195.742 156.871C195.764 153.994 193.451 151.634 190.58 151.607C187.656 151.578 185.317 153.86 185.253 156.806C185.192 159.603 187.581 161.992 190.472 162.029ZM147.596 194.533C147.603 197.413 149.929 199.741 152.806 199.748C155.673 199.755 158.036 197.391 158.02 194.533C158.003 191.631 155.695 189.281 152.851 189.266C149.948 189.251 147.591 191.614 147.598 194.533H147.596ZM190.558 226.986C187.639 226.979 185.246 229.343 185.263 232.218C185.28 235.094 187.612 237.417 190.491 237.429C193.361 237.441 195.727 235.101 195.737 232.241C195.747 229.375 193.4 226.994 190.557 226.988L190.558 226.986ZM163.795 173.073C166.657 173.133 169.026 170.822 169.065 167.93C169.105 165.046 166.806 162.666 163.94 162.625C161.063 162.585 158.671 164.884 158.616 167.742C158.562 170.664 160.842 173.012 163.793 173.073H163.795ZM222.37 167.872C222.372 164.923 220.082 162.641 217.114 162.632C214.262 162.624 211.932 164.989 211.944 167.881C211.956 170.766 214.284 173.087 217.163 173.085C220.048 173.084 222.367 170.762 222.37 167.872ZM163.766 226.38C166.67 226.415 169.029 224.142 169.068 221.269C169.107 218.37 166.829 215.998 163.966 215.956C161.05 215.912 158.671 218.17 158.623 221.028C158.572 223.984 160.842 226.344 163.766 226.38ZM217.11 226.375C220.042 226.383 222.355 224.123 222.37 221.24C222.385 218.279 220.089 215.945 217.165 215.952C214.255 215.959 211.954 218.245 211.941 221.142C211.925 224.042 214.223 226.366 217.11 226.375Z" fill="#9099FF"/>
<path d="M190.429 199.919C187.472 199.9 185.071 197.479 185.076 194.524C185.083 191.482 187.535 189.056 190.575 189.088C193.568 189.118 195.931 191.55 195.915 194.582C195.9 197.58 193.475 199.939 190.429 199.919ZM194.378 194.485C194.359 192.371 192.605 190.641 190.475 190.637C188.382 190.634 186.587 192.454 186.626 194.545C186.665 196.68 188.409 198.397 190.532 198.39C192.64 198.383 194.395 196.6 194.378 194.485Z" fill="#9099FF"/>
</g>
<defs>
<clipPath id="clip0_671_6265">
<rect width="86" height="87" fill="white" transform="matrix(-1 0 0 1 175 0)"/>
</clipPath>
<clipPath id="clip1_671_6265">
<rect width="69" height="69" fill="white" transform="translate(0 150)"/>
</clipPath>
<clipPath id="clip2_671_6265">
<rect width="89" height="89" fill="white" transform="translate(146 150)"/>
</clipPath>
</defs>
</svg>
